Genre:Action | Adventure | Drama
Language:English


ttp://www.imdb.com/title/tt0800369/

Source:Thor.2011.TRUEFRENCH.TS.MD.XviD-RESOLUTiON,
Thor.iNT.CAM.XviD.Hungarian-G1-CiNEDUB/IMAGINE.Thanks!

Format : MPEG-4
Format profile : Base Media
Codec ID : isom
File size : 930 MiB
Duration : 1h 48mn
Overall bit rate : 1 196 Kbps

Video
Format profile : High@L4.1
Format settings, CABAC : Yes
Format settings, ReFrames : 3 frames
Codec ID : avc1
Codec ID/Info : Advanced Video Coding
Duration : 1h 48mn
Bit rate mode : Variable
Bit rate : 966 Kbps
Maximum bit rate : 4 856 Kbps
Width : 720 pixels
Height : 304 pixels
Display aspect ratio : 2.35:1
Frame rate mode : Constant
Frame rate : 25.000 fps
Color space : YUV
Chroma subsampling : 4:2:0
Bit depth : 8 bits
Scan type : Progressive
Bits/(Pixel*Frame) : 0.177
Stream size : 753 MiB (81%)
Writing library : x264

Audio
ID : 2
Format : AAC
Format/Info : Advanced Audio Codec
Format version : Version 4
Format profile : LC
Format settings, SBR : No
Codec ID : 40
Duration : 1h 48mn
Bit rate mode : Variable
Bit rate : 224 Kbps
Maximum bit rate : 288 Kbps
Channel(s) : 2 channels
Channel positions : Front: L R
Sampling rate : 44.1 KHz
Stream size : 174 MiB (19%)


Plot:
The powerful but arrogant warrior Thor is cast out of the fantastic realm of Asgard and sent to live amongst humans on Earth, where he soon becomes one of their finest defenders.

 
http://shareimage.org/images/xmb1fn0jigesgaqoo2w.png
 
http://shareimage.org/images/570ecj202kvzvy9ue3gz.png
 
http://shareimage.org/images/fb5nfvehztbgg1pb0cic.png
 
http://shareimage.org/images/cblm6zr8tkmf6xl3mvuh.png
 
http://shareimage.org/images/quncgrazb1b4bcb6dkkw.png
 
http://shareimage.org/images/4gwyoo0irp40lb7dk74z.png